<svg width="390" height="376" viewBox="0 0 390 376" fill="none" xmlns="http://www.w3.org/2000/svg">
<mask id="mask0_39_10" style="mask-type:alpha" maskUnits="userSpaceOnUse" x="0" y="0" width="390" height="376">
<rect width="390" height="376" fill="#D9D9D9"/>
</mask>
<g mask="url(#mask0_39_10)">
<mask id="mask1_39_10" style="mask-type:luminance" maskUnits="userSpaceOnUse" x="76" y="128" width="225" height="225">
<path d="M281.74 278.93C280.19 278.54 278.63 278.19 277.07 277.86C275.68 277.57 274.29 277.28 272.89 277.06C271.58 276.86 271.04 276.26 271.54 275.03C273.52 275.41 275.46 275.76 277.4 276.17C277.89 276.27 278.45 276.45 278.8 276.78C281.42 279.24 284.22 278.74 287.18 277.5C287.79 277.25 288.66 277.58 289.4 277.65C289.16 278.2 288.97 278.78 288.65 279.28C288.32 279.79 287.85 280.21 287.42 280.69C286.36 279 285.9 278.91 284.21 279.76C283.22 279.42 282.5 279.12 281.76 278.94M274.39 268.02C276.15 266.68 277.73 265.55 279.22 264.29C279.71 263.88 279.93 263.14 280.34 262.61C280.63 262.24 281.04 261.96 281.38 261.65C281.7 262.07 282.26 262.46 282.3 262.9C282.62 266.59 282.19 270.12 279.7 273.08C276.74 272.3 274.91 270.54 274.39 268.02ZM124.5 327.14C123.75 326.73 123.13 326 122.34 325.73C119.07 324.61 118.49 322.24 118.69 319.12C118.99 314.29 118.89 309.43 119.12 304.59C119.18 303.38 119.98 302.23 120.13 301.01C120.43 298.49 120.55 295.95 120.7 293.42C120.86 290.71 120.97 288 121.1 285.3C121.2 283.22 120.42 282.34 118.68 281.18C116.6 279.8 114.57 278.25 114.84 275.17C114.93 274.11 114.69 272.77 114.08 271.93C111.33 268.16 111.93 266.88 114.64 262.38C115.65 260.71 116.73 259.25 115.67 257.18C115.48 256.8 115.82 255.93 116.19 255.55C117.14 254.56 118.2 253.65 119.3 252.82C120.45 251.96 121.62 251.82 122.91 252.8C123.63 253.35 124.65 253.85 125.51 253.8C128.48 253.63 131.19 255.24 132.07 258.12C132.45 259.37 132.87 260.08 134.36 259.55C136.19 258.9 138.38 260.43 138.72 262.46C139.16 265.15 140.19 265.85 142.95 265.47C143.47 265.4 144.14 265.51 144.57 265.8C146.94 267.41 149.3 269.04 151.56 270.8C152.84 271.8 152.91 273.61 152.08 275.24C151.66 276.05 151.37 276.92 150.98 277.76C150.77 278.22 150.57 278.9 150.21 279.03C148.04 279.78 148.28 281.77 147.76 283.41C147.25 285.01 146.6 286.57 145.91 288.11C145.75 288.47 145.2 288.92 144.84 288.9C142.91 288.83 142.47 290.81 141.12 291.53C140.77 291.71 140.69 292.66 140.72 293.25C140.82 295.48 139.96 297.15 138.12 298.38C137.66 298.69 137.24 299.14 136.98 299.63C135.76 301.96 135.36 302.14 132.8 301.24C132.66 301.19 132.49 301.18 131.96 301.1C132.31 302.01 132.43 302.83 132.87 303.39C133.95 304.77 134.01 305.44 132.52 306.35C131.63 306.89 130.53 307.07 129.37 307.48C129.03 307.94 128.5 308.58 128.05 309.28C127.69 309.84 127.41 310.46 127.16 311.08C126.85 311.87 126.78 312.82 126.31 313.49C125.27 314.94 124.39 316.25 126.31 317.43C125.67 318.39 124.7 319.17 124.73 319.92C124.81 322.02 125.29 324.1 125.62 326.19C125.68 326.59 125.79 326.99 125.87 327.39C125.41 327.32 124.9 327.36 124.52 327.15M174.58 208.46C175.29 206.87 175.78 205.53 176.48 204.32C176.67 203.99 177.47 204 177.99 203.86C178.04 204.29 178.11 204.72 178.12 205.15C178.12 205.49 178.04 205.83 178.02 206.18C177.88 208.11 177.85 208.54 176.31 208.54C175.87 208.54 175.3 208.51 174.58 208.46ZM179.39 205.83C179.47 205.24 179.39 204.49 179.09 204.01C178.06 202.42 177.77 200.76 178.07 198.94C180.65 198.68 181.42 199.38 181.39 201.69C181.39 202.23 181.8 202.79 182.09 203.31C182.55 204.1 183.19 204.79 183.53 205.62C184.52 208.04 183.34 209.71 180.78 209.66C180.21 209.66 179.65 209.66 178.53 209.66C178.86 208.21 179.21 207.03 179.38 205.82M166.15 191.9C165.67 191.74 165.05 190.94 165.08 190.48C165.16 189.41 165.6 188.36 165.99 186.91C167.9 188.75 169.33 188.08 170.72 187.05C171.4 188.06 172.03 188.97 172.81 190.11C172.17 190.41 171.54 190.7 170.91 191.01C170.21 191.36 169.54 191.89 168.79 192.02C168.44 192.08 168.07 192.12 167.71 192.12C167.17 192.12 166.64 192.05 166.15 191.89M223.45 181.18C222.96 180.8 222.48 179.65 222.7 179.24C223.98 176.92 225.03 174.35 228.28 173.96C230.05 173.75 231.74 173 233.67 172.44C232.98 175.21 230.44 176.55 227.77 175.9C226.3 178.33 226.09 179.75 226.76 182.93C225.53 182.31 224.36 181.9 223.44 181.18M257.85 166.86C258.26 167.41 258.67 167.97 259.1 168.56C258.19 169.25 257.41 169.84 256.53 170.51C255.35 169.01 255.63 168.2 257.85 166.86ZM195.72 164.01C196.3 163.05 196.94 162.28 198.1 163.54C198.45 163.91 199.31 163.76 199.84 164.03C200.33 164.28 201.11 164.91 201.04 165.14C200.86 165.71 200.3 166.18 199.81 166.61C199.72 166.68 199.55 166.65 199.37 166.61C199.23 166.58 199.08 166.55 198.97 166.57C198.61 166.64 198.07 166.73 197.97 166.97C197.85 167.24 198.03 167.76 198.24 168.04C198.9 168.89 199.63 169.67 200.54 170.72C199.68 170.98 199.12 171.14 198.56 171.31C198.87 170.94 199.18 170.56 199.49 170.19C198.39 169.59 197.29 168.99 196.11 168.34C195.33 169.68 194.66 170.82 193.62 172.6C192.81 171.4 192.22 170.54 191.63 169.67C191.34 169.26 191.14 168.64 190.74 168.47C189.38 167.9 189.69 167.07 190.16 166.1C190.67 165.06 191.29 164.8 192.51 165.17C192.82 165.26 193.14 165.31 193.45 165.31C194.31 165.31 195.15 164.93 195.71 163.98M125.12 160.22C127.02 159.21 129.07 158.36 131.16 157.9C132.28 157.66 133.62 158.41 135.33 158.83C134.57 159.64 134.12 160.25 133.54 160.69C133.05 161.06 132.41 161.33 131.81 161.45C129.14 161.97 127.69 163.82 126.26 165.95C125.09 167.67 123.3 168.96 121.89 170.54C121.34 171.16 121.08 172.03 120.7 172.8C120.42 173.35 120.16 173.91 119.69 174.87C120.65 175.18 121.59 175.51 122.56 175.8C123.66 176.14 125.08 176.14 125.83 176.85C127.99 178.89 129.94 181.16 131.81 183.46C132.19 183.92 131.96 184.97 131.76 185.69C131.72 185.83 131.11 185.83 130.58 185.83C130.43 185.83 130.28 185.83 130.15 185.83C129.73 185.84 129.3 185.8 128.61 185.76C129.04 186.43 129.45 186.81 129.54 187.27C129.75 188.3 130.95 189.46 129.2 190.37C128.9 190.52 128.95 191.36 128.88 191.7C125.92 190.25 122.99 188.8 120.04 187.35C120.06 187.21 120.08 187.07 120.09 186.93C120.61 186.79 121.13 186.5 121.63 186.53C123.12 186.62 123.88 185.41 124.03 184.5C124.19 183.54 123.65 182.17 122.95 181.42C121.57 179.94 119.68 179.32 117.59 179.53C117.36 179.55 117.13 179.59 116.9 179.59C115.45 179.57 113.19 178.12 113.06 176.74C113 176.04 113.84 175.15 114.46 174.54C115.01 173.99 115.81 173.7 116.49 173.3C116.44 173.15 116.38 173 116.33 172.85C115.79 172.82 115.23 172.85 114.7 172.75C113.9 172.59 112.85 172.65 113.37 171.2C113.48 170.89 112.93 170.26 112.57 169.88C112.04 169.33 111.41 168.86 110.83 168.37C110.95 168.16 111.07 167.94 111.2 167.73C111.85 168.04 112.51 168.33 113.15 168.65C113.83 168.99 114.5 169.35 115.26 169.74C115.32 169.33 115.39 169.16 115.35 169.13C113.58 167.7 113.7 166.19 115.14 164.61C115.25 164.49 115.36 164.23 115.3 164.14C114.15 162.18 116.14 161.07 116.48 159.33C117.77 159.76 118.68 162.95 120.21 159.87C121.19 160.74 121.88 161.13 122.63 161.13C123.31 161.13 124.05 160.81 125.1 160.25M147.55 156.8C147.65 153.55 150.24 153.41 152.47 152.86C153.81 152.52 154.37 153.49 154.56 154.52C154.74 155.52 154.6 156.58 154.6 157.85C156.13 157.02 157.5 156.27 159.13 155.39C159.28 156.32 159.69 157.15 159.44 157.6C158.1 159.99 160.04 162.65 158.72 165.02C158.55 165.32 158.92 165.89 158.94 166.34C158.96 166.82 158.86 167.31 158.8 167.79C158.76 168.05 158.54 168.37 158.63 168.57C159.66 170.83 158.03 172.43 157.36 174.3C156.94 175.46 156.9 176.77 156.81 178.03C156.64 180.56 155.75 181.56 153.22 182.01C152.88 182.07 152.48 182.3 152.27 182.58C151.66 183.41 151.24 184.4 150.54 185.13C148.61 187.15 147.98 189.69 147.37 192.28C147.2 192.97 146.93 193.65 146.69 194.39C144.03 192.25 143.33 189.67 143.53 186.48C143.71 183.62 143.27 180.71 142.99 177.84C142.79 175.75 142.24 173.7 142.16 171.61C142.1 170.16 141.68 169.56 140.26 169.78C138.95 169.98 137.97 169.85 137.97 168.15C137.97 167.79 137.44 167.45 137.17 167.08C136.33 165.9 137.22 163.53 138.63 163.59C140.6 163.67 140.31 162.44 140.25 161.33C140.14 159.35 141.52 157.97 143.38 158.27C144.253 156.51 145.527 156.117 147.2 157.09C147.32 157 147.56 156.9 147.56 156.79M97.43 174.99C97.95 175.21 98.62 175.15 99.35 175.24C99.62 174.63 99.91 173.97 100.2 173.33C100.32 173.33 100.43 173.33 100.54 173.33C100.58 173.77 100.63 174.22 100.65 174.66C100.67 175.06 100.52 175.52 100.67 175.86C101.46 177.71 102.18 179.45 100.44 181.29C99.93 181.82 101.27 182.88 102.43 182.62C102.95 182.5 103.7 182.17 103.84 181.77C104.65 179.35 107.12 178.92 108.82 177.46C109.86 178.51 111.39 179.32 110.07 181.61C111.04 181.34 111.61 181.2 112.16 181.03C113.38 180.63 113.96 181.09 113.91 182.36C113.78 185.58 111.82 187.4 109.08 188.53C106.28 189.67 104.2 192.51 104.51 195.15C104.57 195.71 104.99 196.22 105.29 196.74C105.42 196.96 105.83 197.13 105.82 197.3C105.7 199.41 107.12 199.41 108.59 199.4C108.87 199.4 109.36 199.45 109.38 199.57C109.87 201.53 111.41 201.39 112.92 201.49C113.21 201.51 113.76 202.29 113.68 202.59C113.09 204.81 114.73 205.36 116.29 206.23C116.45 205.33 116.64 204.56 116.73 203.77C116.92 202.22 116.7 200.56 118.18 199.43C118.41 199.26 118.56 198.81 118.56 198.49C118.54 196.5 118.56 194.51 118.37 192.54C118.28 191.64 118.5 191.21 119.33 191.09C120.67 190.9 121.89 190.97 123.01 192.03C124.03 193 125.32 193.69 126.4 194.45C126.32 195.47 126.25 196.49 126.17 197.51C126.43 197.66 126.68 197.82 126.94 197.97C127.61 196.97 128.27 195.97 128.94 194.97C129.11 194.97 129.29 194.99 129.46 195C130.66 198.99 132.8 202.24 136.66 204.42C136.06 204.92 135.61 205.41 135.06 205.74C133.3 206.81 131.44 207.73 129.75 208.89C128.12 210.01 127.04 211.62 127.25 213.7C127.36 214.8 127.05 215.23 126.03 215.25C124.1 215.29 122.52 215.64 122.98 218.21C123.02 218.45 122.38 219.03 122.01 219.08C119.67 219.42 118.5 220.72 118.15 223.04C117.8 225.39 116.71 227.4 114.69 228.81C113.5 229.65 113.01 230.81 113.15 232.26C113.31 234.03 113.45 235.79 113.63 237.98C112.17 236.61 110.65 235.75 110.52 233.92C110.37 231.8 108.44 232.5 107.38 231.89C107.18 231.77 106.54 232.65 106.02 232.85C105.54 233.03 104.83 233.11 104.43 232.88C102.38 231.67 99.61 232.75 99.41 235.13C99.18 237.85 99.2 240.63 99.45 243.35C99.62 245.25 101.5 245.87 103.1 244.79C104.1 244.11 105.06 243.37 105.85 242.48C107.73 242.48 107.73 242.61 107.05 244.53C106.7 245.52 106.67 246.66 106.69 247.74C106.69 247.99 107.54 248.53 107.82 248.43C109.44 247.86 109.74 248.94 110.01 250.04C110.19 250.76 110.3 251.52 110.35 252.26C110.51 255.15 110.67 255.34 113.54 255.54C114.1 255.58 114.67 255.49 115.28 255.45C114.09 256.83 113.28 256.89 111.82 256.22C110.02 255.4 108.71 254.14 107.53 252.58C106.95 251.81 105.92 251.37 105.08 250.81C104.9 250.68 104.56 250.71 104.45 250.55C103.01 248.49 100.7 248.95 98.72 248.32C94.89 247.09 91.47 245.05 90.57 240.45C90.3 239.05 89.29 237.79 88.57 236.49C87.83 235.15 87.06 233.82 86.22 232.53C85.94 232.09 85.42 231.81 84.71 231.68C85.97 234.4 87.23 237.12 88.49 239.84C88.28 239.99 88.07 240.13 87.85 240.28C87.41 239.95 86.8 239.71 86.57 239.27C85.62 237.5 84.75 235.68 83.93 233.85C82.97 231.74 81.58 230 80.18 228.17C79.18 226.85 78.32 225.46 77.68 224.01C76.9 229.32 76.51 234.75 76.51 240.28C76.51 302.19 126.69 352.38 188.6 352.38C226.08 352.38 259.27 333.98 279.62 305.72C278.34 305.24 277.81 303.84 278.02 301.98C278.31 299.37 278.23 296.73 278.31 294.1C278.39 291.43 278.69 290.95 281.33 290.48C284.06 289.99 285.71 288.22 287.15 286.08C287.81 285.11 288.13 283.74 289.88 285.14C290.32 285.49 290.8 285.57 291.23 285.46C292.81 281.88 294.2 278.19 295.41 274.42C295.18 274.36 294.95 274.3 294.73 274.23C293.65 273.92 292.41 274.17 291.31 273.91C290.71 273.77 290.25 273.07 290.03 272.88C290.12 270.97 290.09 269.63 290.29 268.33C290.37 267.83 290.97 267.4 291.33 266.94C291.62 267.49 292.02 268.02 292.16 268.6C292.24 268.99 291.89 269.46 291.82 269.91C291.74 270.42 291.78 270.94 291.77 271.45C292.29 271.41 292.84 271.45 293.34 271.33C294.44 271.04 295.49 270.52 296.61 270.34C299.26 260.78 300.68 250.71 300.68 240.31C300.68 237.75 300.59 235.21 300.42 232.69C300.18 232.83 299.86 232.96 299.44 233.06C297.87 233.44 296.48 234.62 295.02 235.45C294.49 235.75 293.98 236.09 293.34 236.5C292.94 235.15 292.35 234.16 294.16 233.47C294.94 233.18 295.24 231.79 295.9 231.03C296.4 230.45 297.08 229.73 297.75 229.64C299.11 229.47 299.72 228.77 299.99 227.83C299.64 224.7 299.17 221.6 298.56 218.55C297.82 219.6 296.93 220.56 296.12 221.54C295.53 222.26 294.4 222.61 293.45 222.93C291.47 223.6 290.56 225.51 291.24 227.41C291.7 228.69 291.88 230.08 292.23 231.65C291.31 231.81 290.56 231.94 289.81 232.08C288.67 229.43 287.8 226.75 284.88 225.41C284.53 225.6 284.05 225.94 283.53 226.13C282.24 226.56 282.19 227.21 283.07 228.13C283.3 228.37 283.53 228.71 283.56 229.01C283.82 232.55 284.09 236.11 284.24 239.65C284.34 242.13 282.56 243.73 281.2 245.49C280.99 245.76 280.39 245.83 279.97 245.83C277.81 245.82 277.19 246.32 276.59 248.4C276.47 248.83 275.87 249.12 275.49 249.48C275.21 249.1 274.72 248.73 274.7 248.33C274.66 247.4 274.57 246.66 273.39 246.86C272.19 247.05 272.1 247.91 272.44 248.81C272.86 249.93 273.27 251.1 273.93 252.09C275.89 255.01 275.82 256.07 273.15 258.26C272.58 258.73 271.93 259.1 271.21 259.59C270.8 257.24 269.39 255.81 267.44 254.77C266.49 257.15 267.3 259.88 268.66 261.73C269.63 263.06 269.87 264.9 270.2 266.62C268.2 266.03 266.67 265.21 266.98 262.92C267.01 262.7 267.01 262.37 266.89 262.25C264.38 259.96 265.98 256.47 264.45 253.92C263.92 253.03 263.18 252.25 262.7 251.34C262 249.98 261.11 248.6 260.89 247.14C260.54 244.75 260.67 244.66 258.37 245.05C257.59 245.18 256.78 245.24 256.33 245.68C254.74 247.57 253.32 249.67 251.48 251.27C250.47 252.14 250.06 252.94 249.97 254.11C249.88 255.31 249.83 256.52 249.69 257.72C249.52 259.27 248.49 259.83 247.06 259.92C245.68 260.02 245.48 259.21 245.4 258.08C245.17 254.9 244.69 251.77 242.94 249C242.72 248.66 242.53 248.17 242.21 248.06C239.75 247.16 239.2 244.89 238.27 242.84C238.07 242.4 237.4 242 236.89 241.92C235.53 241.72 234.13 241.74 232.75 241.62C232.58 241.61 232.4 241.61 232.21 241.61C231.45 241.61 230.67 241.61 230.37 240.49C230.29 240.24 229.46 240.14 228.97 240.08C226.97 239.85 225.37 239.16 224.34 237.23C224.04 236.67 222.87 236.56 222.11 236.25C222.03 236.41 221.96 236.57 221.88 236.73C222.4 238.11 222.86 239.51 223.43 240.87C224.51 243.46 226.31 243.68 228.13 241.31C228.8 242.05 229.52 242.7 230.07 243.49C230.36 243.92 230.63 244.83 230.42 245.06C229.38 246.17 229.66 247.61 229.18 248.81C228.82 249.71 227.83 250.51 226.93 251C225.42 251.8 223.74 252.31 222.14 252.96C221.62 253.17 221.05 253.37 220.61 253.71C219.3 254.72 218.38 254.47 217.81 252.98C216.77 250.26 215.64 247.56 214.54 244.86C214.45 244.65 214.34 244.35 214.17 244.29C212.17 243.58 212.47 241.81 212.29 240.27C212.24 239.87 212.27 239.34 212.03 239.11C211.45 238.55 210.75 238.14 210.09 237.67C210.06 238.38 209.84 239.15 210.03 239.78C211.03 243.09 212.13 246.35 213.19 249.63C213.21 249.69 213.2 249.75 213.23 249.8C214.3 251.75 215.16 253.87 216.52 255.6C217.82 257.26 219.89 257.37 221.94 256.93C222.48 256.81 223.09 256.99 223.67 257.03C223.55 257.62 223.52 258.25 223.28 258.8C222.77 259.94 222.1 261.02 221.6 262.16C220.52 264.59 218.98 266.62 216.62 267.96C213.91 269.5 213.16 271.03 213.59 274.05C213.97 276.69 214.46 279.33 214.66 281.98C214.81 284.1 213.8 285.78 211.86 286.78C209.86 287.82 209.12 289.29 209.2 291.67C209.26 293.36 208.16 295.1 207.55 296.8C207.24 297.67 206.75 298.46 206.48 299.33C205.16 303.49 202.39 305.69 198.05 305.98C197.42 306.02 196.81 306.16 196.24 306.25C195.19 303.71 194.11 301.2 193.09 298.66C192.8 297.92 192.68 297.11 192.46 296.33C190.72 290.24 190.14 284.01 190.46 277.72C190.6 275.05 189.07 273.17 188.03 271.06C187.37 269.73 186.84 268.71 187.78 267.26C188.23 266.57 188.13 265.49 188.16 264.59C188.19 263.6 187.62 263.24 186.63 263.13C185.96 263.05 185.35 262.5 184.67 262.26C184 262.02 183.24 261.66 182.6 261.79C181.16 262.07 179.78 262.92 178.35 262.97C176.46 263.03 174.46 262.82 172.67 262.22C171.31 261.77 170.18 260.57 169.01 259.62C168.64 259.33 168.48 258.78 168.22 258.35C167.82 257.67 167.53 256.89 166.99 256.34C165.45 254.76 165.06 252.92 165.25 250.78C165.44 248.75 165.34 246.69 165.51 244.66C165.55 244.07 166.05 243.5 166.42 242.98C166.97 242.2 167.57 241.47 168.16 240.73C168.68 240.1 169.23 239.49 169.78 238.89C169.96 238.69 170.27 238.55 170.38 238.31C171.13 236.57 171.68 234.73 172.64 233.12C173.04 232.45 174.26 232.27 175.31 231.78C175.41 230.21 176.62 229.59 178.36 229.36C179.52 229.2 180.61 228.52 181.77 228.32C184.46 227.84 187.16 227.51 190.32 227.04C189.9 228.4 189.69 229.25 189.36 230.06C188.98 230.98 188.98 231.76 190.14 231.82C192.31 231.95 193.89 233.11 195.41 234.48C195.86 234.88 196.41 235.16 197.02 235.56C197.24 235.13 197.43 234.9 197.48 234.64C197.91 232.3 198.11 232.09 200.35 233.08C202.81 234.18 205.33 234.45 207.95 234.24C210.24 234.06 212.52 230.4 211.57 228.3C211.41 227.95 210.73 227.66 210.29 227.66C209.08 227.63 207.87 227.79 206.67 227.83C205.15 227.88 204.42 227.16 204.12 225.63C203.93 224.61 203.23 223.7 202.71 222.64C200.72 223.89 202.44 226.76 199.69 227.14C199.24 225.86 198.65 224.56 198.34 223.2C198.02 221.79 197.3 221.13 195.88 221.06C194.55 221 193.56 220.51 193.44 218.92C193.41 218.57 192.79 218.27 192.12 217.65C192.03 219.87 193.39 220.52 194.37 221.49C194.94 222.06 195.49 222.96 195.5 223.71C195.5 224.56 194.88 225.42 194.22 226.21C194.32 223.36 193.15 221.72 190.53 220.9C189.81 220.67 189.28 219.8 188.59 219.15C188.22 219.34 187.77 219.79 187.43 219.72C184.96 219.15 183.61 220.56 182.29 222.31C181.01 224 179.45 225.51 179.36 227.82C179.36 227.9 179.2 227.97 179.24 227.94C177.25 227.56 175.37 227.21 173.44 226.84C173.58 224.6 173.7 222.63 173.83 220.49C174.73 220.39 175.74 220.29 176.76 220.15C179.13 219.83 180.28 217.12 178.9 215.14C177.79 213.54 178.02 213.33 179.87 212.8C180.93 212.5 181.83 211.5 182.7 210.7C183.38 210.09 183.8 209.19 184.51 208.62C185.2 208.07 186.11 207.44 186.91 207.45C188.38 207.45 188.92 206.92 188.89 205.55C188.87 204.58 188.89 203.61 188.89 202.23C189.44 202.84 189.75 203.13 189.99 203.46C192.3 206.44 196.57 206.73 199.39 204.28C200.51 203.31 201.87 202.65 202.33 201.07C202.39 200.86 202.87 200.68 203.17 200.63C205.05 200.27 205.82 199.38 205.9 197.1C204.03 197.35 202.22 197.59 200.15 197.87C199.25 197.05 199.26 195.38 200.49 193.57C200.91 192.96 201.36 192.35 201.74 191.71C202.28 190.81 202.17 190.08 200.88 189.59C199.36 191.62 197.67 193.59 196.33 195.78C195.75 196.72 195.94 198.12 195.72 199.3C195.49 200.53 195.29 201.78 194.88 202.96C194.75 203.33 194 203.65 193.52 203.67C193.25 203.67 192.94 203.04 192.67 202.67C191.99 201.77 191.4 200.78 190.62 199.97C189.79 199.11 188.94 199.22 188.13 200.2C187.81 200.59 186.85 201.01 186.69 200.86C186.26 200.46 185.86 199.75 185.89 199.19C185.96 197.83 186.18 196.44 186.55 195.13C186.71 194.55 187.34 194.06 187.84 193.62C189.09 192.53 190.58 191.65 191.61 190.4C192.92 188.81 194.2 187.04 194.91 185.13C195.64 183.17 197.14 182.83 198.68 182.38C199.83 182.05 201.06 181.97 202.25 181.82C203.56 181.66 204.62 181.72 205.83 182.78C207.38 184.13 209.51 184.83 211.4 185.78C212.19 186.18 213.32 186.28 213.05 187.59C212.79 188.89 211.8 189.1 210.67 189.04C210.39 189.02 210.11 189.07 209.64 189.11C209.82 189.98 209.89 190.79 210.19 191.5C210.34 191.86 211.03 192.34 211.27 192.25C211.76 192.06 212.13 191.53 212.52 191.11C212.78 190.82 212.92 190.44 213.19 190.15C214.29 188.97 215.39 187.79 216.53 186.64C216.79 186.38 217.25 186.08 217.51 186.16C217.77 186.23 217.98 186.74 218.08 187.09C218.49 188.7 219.02 189 220.48 188.26C221.2 187.9 221.86 187.43 222.51 186.94C223.69 186.05 224.92 185.75 226.39 186.17C228.72 186.83 229.43 186.19 229.21 183.79C231.69 183.02 232.97 185.07 235.05 186.69C234.53 182.76 234.71 179.5 237.96 176.88C237.93 181.35 240.51 185.25 238.24 189.5C241.23 189.32 240.17 186.54 241.64 185.61C239.24 183.51 238.46 179.72 240.04 178.28C242.28 180.91 243.54 180.69 244.89 177.33C246.37 177.58 247.41 177.13 248.77 176.05C250.33 174.81 252.94 174.68 255.12 174.5C257.61 174.29 257.59 174.5 258.26 172.04C258.38 171.62 259.05 170.98 259.33 171.05C260.13 171.23 261.34 171.57 261.51 172.13C261.94 173.5 262.67 173.84 263.92 173.65C264.09 173.62 264.27 173.65 264.44 173.65C267.9 173.8 268.22 174.23 267.35 177.88C268.28 178.06 269.23 178.19 270.15 178.45C271.69 178.88 273.42 178.5 274.73 179.96C275.59 180.92 277.71 180.5 278.44 179.64C278.83 179.18 279.49 178.43 279.83 178.53C280.9 178.82 282.03 179.2 282.95 179.82C263.01 148.78 228.19 128.22 188.56 128.22C151 128.22 117.75 146.7 97.4 175.06" fill="white"/>
</mask>
<g mask="url(#mask1_39_10)">
<path d="M161.809 19.2787L-32.3599 267L215.362 461.169L409.531 213.447L161.809 19.2787Z" fill="url(#paint0_linear_39_10)"/>
</g>
<mask id="mask2_39_10" style="mask-type:luminance" maskUnits="userSpaceOnUse" x="18" y="3" width="352" height="155">
<path d="M186.35 4.51C139.22 22.17 92.43 40.72 45.4 58.63C21.85 67.6 22.18 67.26 21.54 92.43C21.13 108.56 18.47 124.63 18.14 140.77C18.02 146.42 21.86 152.16 23.9 157.86C25.8 157.49 27.7 157.12 29.6 156.75V71.35C48.08 80.52 66.05 89.2 83.69 98.5C85.74 99.58 86.71 104.1 86.87 107.09C87.3 115.03 87.01 123 87.01 131.99C160.04 88.69 231.66 88.69 304.26 131.8C304.26 126.3 304.86 122.18 304.16 118.29C301.55 103.75 308.01 96.12 321.34 90.81C337.02 84.56 351.81 76.09 369.07 67.57C363.94 65.48 361.29 64.35 358.61 63.32C307.47 43.64 256.4 23.77 205.08 4.57C202.28 3.52 198.94 3 195.61 3C192.28 3 189.09 3.51 186.34 4.53" fill="white"/>
</mask>
<g mask="url(#mask2_39_10)">
<path d="M151.61 -167.484L-57.1917 98.9059L235.454 328.287L444.256 61.8969L151.61 -167.484Z" fill="url(#paint1_linear_39_10)"/>
</g>
<mask id="mask3_39_10" style="mask-type:luminance" maskUnits="userSpaceOnUse" x="112" y="108" width="214" height="262">
<path d="M112.38 137.83C117.06 135.59 120.55 133.98 123.98 132.27C181.2 103.86 254.19 122.15 288.99 173.63C329.95 234.23 309.95 312.53 244.75 345.73C234.29 351.06 225.45 357.31 220.39 369.41C270.74 362.74 316.15 315.12 324.19 261.8C333.07 202.9 303.56 146.39 250.77 121.16C233.05 112.69 212.49 108.61 192.32 108.61C160.52 108.61 129.68 118.75 112.39 137.82" fill="white"/>
</mask>
<g mask="url(#mask3_39_10)">
<path d="M196.353 -3.30337L-16.5635 268.337L249.071 476.546L461.988 204.906L196.353 -3.30337Z" fill="url(#paint2_linear_39_10)"/>
</g>
</g>
<defs>
<linearGradient id="paint0_linear_39_10" x1="115.007" y1="179.512" x2="281.091" y2="309.692" gradientUnits="userSpaceOnUse">
<stop stop-color="#84BF41"/>
<stop offset="0.1" stop-color="#84BF41"/>
<stop offset="0.55" stop-color="#3DB29D"/>
<stop offset="0.9" stop-color="#09A9E2"/>
<stop offset="1" stop-color="#09A9E2"/>
</linearGradient>
<linearGradient id="paint1_linear_39_10" x1="100.965" y1="8.26391" x2="300.29" y2="164.498" gradientUnits="userSpaceOnUse">
<stop stop-color="#09A9E2"/>
<stop offset="0.9" stop-color="#09A9E2"/>
<stop offset="1" stop-color="#09A9E2"/>
</linearGradient>
<linearGradient id="paint2_linear_39_10" x1="122.847" y1="157.764" x2="315.078" y2="308.437" gradientUnits="userSpaceOnUse">
<stop stop-color="#84BF41"/>
<stop offset="0.1" stop-color="#84BF41"/>
<stop offset="0.55" stop-color="#3DB29D"/>
<stop offset="0.9" stop-color="#09A9E2"/>
<stop offset="1" stop-color="#09A9E2"/>
</linearGradient>
</defs>
</svg>
