<?xml version="1.0" encoding="UTF-8"?>
<svg id="Layer_2" xmlns="http://www.w3.org/2000/svg" xmlns:xlink="http://www.w3.org/1999/xlink" viewBox="0 0 883.22 289">
  <defs>
    <style>
      .cls-1 {
        fill: url(#radial-gradient-10);
      }

      .cls-2 {
        fill: url(#linear-gradient-13);
      }

      .cls-3 {
        clip-path: url(#clippath-21);
      }

      .cls-4 {
        clip-path: url(#clippath-6);
      }

      .cls-5 {
        clip-path: url(#clippath-7);
      }

      .cls-6 {
        clip-path: url(#clippath-17);
      }

      .cls-7 {
        clip-path: url(#clippath-31);
      }

      .cls-8 {
        clip-path: url(#clippath-15);
      }

      .cls-9 {
        clip-path: url(#clippath-33);
      }

      .cls-10 {
        clip-path: url(#clippath-18);
      }

      .cls-11 {
        clip-path: url(#clippath-4);
      }

      .cls-12 {
        fill: url(#linear-gradient-2);
      }

      .cls-13 {
        clip-path: url(#clippath-22);
      }

      .cls-14 {
        clip-path: url(#clippath-23);
      }

      .cls-15 {
        fill: url(#radial-gradient-9);
      }

      .cls-16 {
        fill: url(#linear-gradient-10);
      }

      .cls-17 {
        fill: url(#linear-gradient-12);
      }

      .cls-18 {
        clip-path: url(#clippath-9);
      }

      .cls-19 {
        clip-path: url(#clippath-10);
      }

      .cls-20 {
        fill: url(#radial-gradient-14);
      }

      .cls-21 {
        clip-path: url(#clippath-25);
      }

      .cls-22 {
        fill: url(#radial-gradient-16);
      }

      .cls-23 {
        clip-path: url(#clippath-27);
      }

      .cls-24 {
        fill: url(#radial-gradient-18);
      }

      .cls-25 {
        clip-path: url(#clippath-11);
      }

      .cls-26 {
        fill: none;
      }

      .cls-27 {
        fill: url(#linear-gradient-4);
      }

      .cls-28 {
        fill: url(#radial-gradient-5);
      }

      .cls-29 {
        fill: url(#radial-gradient);
      }

      .cls-30 {
        fill: url(#radial-gradient-3);
      }

      .cls-31 {
        clip-path: url(#clippath-28);
      }

      .cls-32 {
        fill: url(#linear-gradient-3);
      }

      .cls-33 {
        clip-path: url(#clippath-1);
      }

      .cls-34 {
        fill: url(#radial-gradient-20);
      }

      .cls-35 {
        fill: url(#linear-gradient-5);
      }

      .cls-36 {
        fill: url(#radial-gradient-11);
      }

      .cls-37 {
        clip-path: url(#clippath-5);
      }

      .cls-38 {
        clip-path: url(#clippath-20);
      }

      .cls-39 {
        clip-path: url(#clippath-8);
      }

      .cls-40 {
        fill: url(#linear-gradient-8);
      }

      .cls-41 {
        clip-path: url(#clippath-3);
      }

      .cls-42 {
        clip-path: url(#clippath-26);
      }

      .cls-43 {
        fill: url(#radial-gradient-8);
      }

      .cls-44 {
        fill: url(#radial-gradient-2);
      }

      .cls-45 {
        clip-path: url(#clippath-12);
      }

      .cls-46 {
        fill: url(#linear-gradient-14);
      }

      .cls-47 {
        clip-path: url(#clippath-14);
      }

      .cls-48 {
        fill: url(#radial-gradient-4);
      }

      .cls-49 {
        fill: url(#linear-gradient-7);
      }

      .cls-50 {
        clip-path: url(#clippath-30);
      }

      .cls-51 {
        clip-path: url(#clippath-19);
      }

      .cls-52 {
        fill: url(#linear-gradient-9);
      }

      .cls-53 {
        fill: url(#linear-gradient-11);
      }

      .cls-54 {
        clip-path: url(#clippath-32);
      }

      .cls-55 {
        fill: url(#radial-gradient-12);
      }

      .cls-56 {
        fill: url(#radial-gradient-19);
      }

      .cls-57 {
        fill: url(#linear-gradient-6);
      }

      .cls-58 {
        fill: url(#radial-gradient-15);
      }

      .cls-59 {
        clip-path: url(#clippath-16);
      }

      .cls-60 {
        clip-path: url(#clippath-2);
      }

      .cls-61 {
        fill: url(#radial-gradient-6);
      }

      .cls-62 {
        clip-path: url(#clippath-29);
      }

      .cls-63 {
        clip-path: url(#clippath-13);
      }

      .cls-64 {
        fill: url(#radial-gradient-7);
      }

      .cls-65 {
        fill: url(#radial-gradient-17);
      }

      .cls-66 {
        fill: url(#radial-gradient-13);
      }

      .cls-67 {
        fill: url(#linear-gradient);
      }

      .cls-68 {
        clip-path: url(#clippath-24);
      }

      .cls-69 {
        clip-path: url(#clippath);
      }
    </style>
    <clipPath id="clippath">
      <polygon class="cls-26" points="284.39 91.22 284.39 95.01 296.33 95.01 296.33 128.55 300.59 128.55 300.59 95.01 312.6 95.01 312.6 91.22 284.39 91.22"/>
    </clipPath>
    <radialGradient id="radial-gradient" cx="119.94" cy="-292.31" fx="119.94" fy="-292.31" r="6.54" gradientTransform="translate(-5127.73 -13836.84) scale(47.73 -47.73)" gradientUnits="userSpaceOnUse">
      <stop offset="0" stop-color="#093856"/>
      <stop offset=".63" stop-color="#052f4a"/>
      <stop offset="1" stop-color="#091c2d"/>
    </radialGradient>
    <clipPath id="clippath-1">
      <path class="cls-26" d="M318.01,107.22v-5.34h-3.89v26.67h4.05v-12.42c.16-8.38,3.63-12.22,10.5-11.26v-3.41c-.67-.09-1.3-.14-1.92-.14-4.14,0-7.03,2.04-8.74,5.9"/>
    </clipPath>
    <radialGradient id="radial-gradient-2" cx="119.94" cy="-292.31" fx="119.94" fy="-292.31" r="6.54" xlink:href="#radial-gradient"/>
    <clipPath id="clippath-2">
      <path class="cls-26" d="M337,120.81c0-3.74,3.25-5.49,9.06-5.54,1.77,0,3.48.05,5.01.16l.05,3.1c-.16,4.59-3.57,7.25-8.26,7.25-3.57,0-5.87-1.54-5.87-4.96M335.57,103.59v3.41c2.13-1.22,4.48-2.23,8-2.23,5.54,0,7.51,2.23,7.51,7.57-2.19-.1-4.26-.16-6.24-.1-5.81.1-12.1,1.71-12.1,8.58,0,5.92,4.53,8.27,9.81,8.27,5.01,0,7.36-2.19,8.8-4.27h.1v3.74h3.63v-15.68c0-7.25-2.78-11.52-10.94-11.52-3.84,0-6.29.96-8.58,2.24"/>
    </clipPath>
    <radialGradient id="radial-gradient-3" cx="119.94" cy="-292.31" fx="119.94" fy="-292.31" r="6.54" xlink:href="#radial-gradient"/>
    <clipPath id="clippath-3">
      <path class="cls-26" d="M364.44,128.55h4.05v-26.66h-4.05v26.66ZM364.33,96.34h4.27v-5.12h-4.27v5.12Z"/>
    </clipPath>
    <radialGradient id="radial-gradient-4" cx="119.94" fx="119.94" r="6.54" xlink:href="#radial-gradient"/>
    <clipPath id="clippath-4">
      <path class="cls-26" d="M382.42,106.68v-4.8h-3.94v26.67h4.05v-13.97c.26-6.56,3.73-9.81,8.31-9.81s7.05,3.09,7.05,9.06v14.72h4.05v-14.41c0-8.32-3.74-12.8-10.3-12.8-4.22,0-7.42,1.82-9.23,5.33"/>
    </clipPath>
    <radialGradient id="radial-gradient-5" cx="119.94" cy="-292.31" fx="119.94" fy="-292.31" r="6.54" xlink:href="#radial-gradient"/>
    <clipPath id="clippath-5">
      <path class="cls-26" d="M411.57,128.55h4.05v-26.66h-4.05v26.66ZM411.46,96.34h4.27v-5.12h-4.27v5.12Z"/>
    </clipPath>
    <radialGradient id="radial-gradient-6" cx="119.94" fx="119.94" r="6.54" xlink:href="#radial-gradient"/>
    <clipPath id="clippath-6">
      <path class="cls-26" d="M429.55,106.68v-4.8h-3.95v26.67h4.05v-13.97c.26-6.56,3.74-9.81,8.32-9.81s7.04,3.09,7.04,9.06v14.72h4.05v-14.41c0-8.32-3.73-12.8-10.29-12.8-4.22,0-7.42,1.82-9.23,5.33"/>
    </clipPath>
    <radialGradient id="radial-gradient-7" cx="119.94" cy="-292.31" fx="119.94" fy="-292.31" r="6.54" xlink:href="#radial-gradient"/>
    <clipPath id="clippath-7">
      <path class="cls-26" d="M460.25,115.11c0-6.3,3.25-10.3,8.42-10.3s8.48,4,8.48,10.3-3.36,10.5-8.48,10.5-8.42-4.1-8.42-10.5M456.09,115.11c0,8.48,4.74,13.97,11.62,13.97,3.95,0,7.09-1.76,9.06-4.86v3.04c0,6.89-4.74,9.28-9.92,9.28-3.25,0-6.45-.91-8.85-1.92v3.78c2.89,1.28,6.24,1.98,9.39,1.98,8.95,0,13.38-5.55,13.38-13.97v-24.54h-4.01v4.27c-1.97-3.03-5.17-4.8-9.06-4.8-6.88,0-11.62,5.39-11.62,13.76"/>
    </clipPath>
    <radialGradient id="radial-gradient-8" cx="119.94" fx="119.94" r="6.54" xlink:href="#radial-gradient"/>
    <clipPath id="clippath-8">
      <path class="cls-26" d="M508.71,117.99c0-3.89,2.72-6.03,6.18-7.74.11.16.27.32.43.48l10.72,11.04c-2.02,2.24-4.86,3.63-8.43,3.63-5.54,0-8.91-3.26-8.91-7.41M512.65,99.38c0-3.2,2.19-5.18,5.45-5.18s5.49,1.87,5.49,4.91c0,3.73-3.36,5.49-7.25,7.25-2.62-2.93-3.68-4.8-3.68-6.98M508.23,99.11c0,3.15,1.44,5.44,4.48,8.86-4.37,2.03-8.36,4.75-8.36,10.56,0,7.2,6.24,10.67,12.95,10.67,4.91,0,8.69-1.76,11.47-4.64l3.84,3.95h4.8l-6.51-6.83c2.07-3.51,3.14-8,3.2-12.9h-3.73c0,3.73-.75,7.2-2.25,10.02l-9.65-10.18c4.8-2.13,9.54-4.37,9.54-9.81,0-4.96-3.94-8.1-9.92-8.1s-9.87,3.25-9.87,8.42"/>
    </clipPath>
    <radialGradient id="radial-gradient-9" cx="119.94" cy="-292.31" fx="119.94" fy="-292.31" r="6.54" xlink:href="#radial-gradient"/>
    <clipPath id="clippath-9">
      <path class="cls-26" d="M562.18,95.01h6.78c9.44,0,15.03,5.49,15.03,14.77s-5.5,14.99-15.31,14.99h-6.51v-29.75ZM557.92,91.22v37.33h10.82c12.7,0,19.74-6.94,19.74-18.93s-7.15-18.4-19.74-18.4h-10.82Z"/>
    </clipPath>
    <radialGradient id="radial-gradient-10" cx="119.94" fx="119.94" r="6.54" xlink:href="#radial-gradient"/>
    <clipPath id="clippath-10">
      <path class="cls-26" d="M606.48,104.82c4.59,0,7.31,3.15,7.47,7.89h-15.25c.53-4.86,3.25-7.89,7.78-7.89M594.42,114.79c0,8,4.48,14.3,13.5,14.3,2.98,0,6.09-.7,8.86-2.14v-3.63c-3.15,1.55-6.18,2.29-8.7,2.29-5.76,0-9.38-3.84-9.38-9.65h19.52c.05-8.59-3.42-14.56-11.62-14.56s-12.17,5.43-12.17,13.38"/>
    </clipPath>
    <radialGradient id="radial-gradient-11" cx="119.94" cy="-292.31" fx="119.94" fy="-292.31" r="6.54" xlink:href="#radial-gradient"/>
    <clipPath id="clippath-11">
      <polygon class="cls-26" points="642.66 101.88 634.29 124.02 634.29 124.18 634.18 124.18 634.18 124.02 625.81 101.88 621.7 101.88 631.72 128.55 636.74 128.55 646.82 101.88 642.66 101.88"/>
    </clipPath>
    <radialGradient id="radial-gradient-12" cx="119.94" cy="-292.31" fx="119.94" fy="-292.31" r="6.54" xlink:href="#radial-gradient"/>
    <clipPath id="clippath-12">
      <path class="cls-26" d="M684.15,88.55v32.42c0,5.6,2.4,7.84,6.35,7.84.48,0,1.33-.05,2.28-.31v-3.31c-.58.05-1.22.1-1.91.05-1.87-.16-2.67-.96-2.67-4v-32.69h-4.05Z"/>
    </clipPath>
    <radialGradient id="radial-gradient-13" cx="119.94" cy="-292.31" fx="119.94" fy="-292.31" r="6.54" xlink:href="#radial-gradient"/>
    <clipPath id="clippath-13">
      <path class="cls-26" d="M701.22,115.22c0-6.3,3.48-10.45,8.76-10.45s8.69,4.16,8.69,10.45-3.42,10.45-8.69,10.45-8.76-4.16-8.76-10.45M696.96,115.22c0,8.21,5.28,13.87,13.02,13.87s13.01-5.65,13.01-13.87-5.28-13.87-13.01-13.87-13.02,5.65-13.02,13.87"/>
    </clipPath>
    <radialGradient id="radial-gradient-14" cx="119.94" cy="-292.31" fx="119.94" fy="-292.31" r="6.54" xlink:href="#radial-gradient"/>
    <clipPath id="clippath-14">
      <path class="cls-26" d="M733.99,115.11c0-6.3,3.36-10.3,8.48-10.3s8.38,4,8.38,10.3-3.25,10.5-8.42,10.5-8.43-4.1-8.43-10.5M734.37,106.1v-4.22h-4.05v37.34h3.89v-15.2c1.98,3.19,5.17,5.07,9.18,5.07,6.94,0,11.68-5.5,11.68-13.97s-4.74-13.76-11.62-13.76c-3.89,0-7.04,1.7-9.06,4.75"/>
    </clipPath>
    <radialGradient id="radial-gradient-15" cx="119.94" fx="119.94" r="6.54" xlink:href="#radial-gradient"/>
    <clipPath id="clippath-15">
      <path class="cls-26" d="M782.66,107.27c-1.39-3.89-4.22-5.92-8.31-5.92s-6.57,1.87-8,5.39v-4.86h-3.89v26.67h4.05v-13.66c.21-6.55,2.67-10.12,7.1-10.12,3.94,0,6.12,2.98,6.12,8.42v15.36h3.8v-12.8c0-7.09,2.72-10.98,7.3-10.98,3.94,0,5.97,2.98,5.97,8.42v15.36h4.05v-15.3c0-7.68-3.35-11.9-9.27-11.9-4.11,0-7.25,2.03-8.91,5.92"/>
    </clipPath>
    <radialGradient id="radial-gradient-16" cx="119.94" cy="-292.31" fx="119.94" fy="-292.31" r="6.54" xlink:href="#radial-gradient"/>
    <clipPath id="clippath-16">
      <path class="cls-26" d="M819.76,104.82c4.59,0,7.3,3.15,7.46,7.89h-15.25c.54-4.86,3.26-7.89,7.79-7.89M807.71,114.79c0,8,4.47,14.3,13.48,14.3,3,0,6.09-.7,8.86-2.14v-3.63c-3.15,1.55-6.18,2.29-8.69,2.29-5.77,0-9.39-3.84-9.39-9.65h19.52c.05-8.59-3.42-14.56-11.62-14.56s-12.16,5.43-12.16,13.38"/>
    </clipPath>
    <radialGradient id="radial-gradient-17" cx="119.94" cy="-292.31" fx="119.94" fy="-292.31" r="6.54" xlink:href="#radial-gradient"/>
    <clipPath id="clippath-17">
      <path class="cls-26" d="M664.5,104.82c4.59,0,7.3,3.15,7.46,7.89h-15.25c.54-4.86,3.26-7.89,7.79-7.89M652.45,114.79c0,8,4.47,14.3,13.48,14.3,3,0,6.09-.7,8.86-2.14v-3.63c-3.15,1.55-6.18,2.29-8.69,2.29-5.77,0-9.39-3.84-9.39-9.65h19.52c.05-8.59-3.42-14.56-11.62-14.56s-12.16,5.43-12.16,13.38"/>
    </clipPath>
    <radialGradient id="radial-gradient-18" cx="116.69" cy="-292.31" fx="116.69" fy="-292.31" r="6.54" xlink:href="#radial-gradient"/>
    <clipPath id="clippath-18">
      <path class="cls-26" d="M842.92,106.68v-4.8h-3.94v26.67h4.06v-13.97c.26-6.56,3.73-9.81,8.31-9.81s7.04,3.09,7.04,9.06v14.72h4.05v-14.41c0-8.32-3.73-12.8-10.29-12.8-4.22,0-7.41,1.82-9.23,5.33"/>
    </clipPath>
    <radialGradient id="radial-gradient-19" cx="119.94" cy="-292.31" fx="119.94" fy="-292.31" r="6.54" xlink:href="#radial-gradient"/>
    <clipPath id="clippath-19">
      <path class="cls-26" d="M872.12,95.59v6.29h-4.75v3.53h4.75v16c0,5.01,2.02,7.46,6.67,7.46,1.22,0,2.5-.16,3.62-.43v-3.3c-1.01.16-2.24.31-3.14.26-2.4-.1-3.1-1.22-3.1-3.95v-16.05h7.04v-3.53h-7.04v-7.72l-4.05,1.43Z"/>
    </clipPath>
    <radialGradient id="radial-gradient-20" cx="119.94" fx="119.94" r="6.54" xlink:href="#radial-gradient"/>
    <clipPath id="clippath-20">
      <path class="cls-26" d="M308.39,187.54c0,18.54,11.75,30.79,30.45,30.79,4.73,0,9.78-.77,14.33-2.14v-6.34c-4.98,1.71-10.21,2.31-13.99,2.31-14.58,0-23.76-9.69-23.76-24.62s9.01-24.87,23.68-24.87c4.89,0,9.78,1.11,13.81,2.57v-6.17c-4.12-1.54-8.75-2.49-13.99-2.49-18.7,0-30.54,12.27-30.54,30.96"/>
    </clipPath>
    <linearGradient id="linear-gradient" x1="124.37" y1="-277.75" x2="130.91" y2="-277.75" gradientTransform="translate(77639.56 -34668.14) rotate(90) scale(278.34 -278.34)" gradientUnits="userSpaceOnUse">
      <stop offset="0" stop-color="#84bf41"/>
      <stop offset=".1" stop-color="#84bf41"/>
      <stop offset=".55" stop-color="#3db29d"/>
      <stop offset=".9" stop-color="#09a9e2"/>
      <stop offset="1" stop-color="#09a9e2"/>
    </linearGradient>
    <clipPath id="clippath-21">
      <path class="cls-26" d="M367.81,187.54c0-15.52,8.15-24.87,21.53-24.87,13.38-.09,21.53,9.25,21.53,24.87s-8.15,24.79-21.53,24.79-21.53-9.26-21.53-24.79M360.78,187.54c0,18.62,11.32,30.97,28.56,30.97s28.65-12.35,28.65-30.97-11.41-30.96-28.65-30.96-28.56,12.27-28.56,30.96"/>
    </clipPath>
    <linearGradient id="linear-gradient-2" x1="124.37" y1="-277.69" x2="130.91" y2="-277.69" gradientTransform="translate(77682.62 -34724.7) rotate(90) scale(278.34 -278.34)" xlink:href="#linear-gradient"/>
    <clipPath id="clippath-22">
      <polygon class="cls-26" points="430.47 157.43 430.47 217.48 463.68 217.48 463.68 211.21 437.34 211.21 437.34 157.43 430.47 157.43"/>
    </clipPath>
    <linearGradient id="linear-gradient-3" x1="124.37" y1="-277.63" x2="130.91" y2="-277.63" gradientTransform="translate(77724.89 -34780.41) rotate(90) scale(278.34 -278.34)" xlink:href="#linear-gradient"/>
    <clipPath id="clippath-23">
      <polygon class="cls-26" points="473.34 157.43 473.34 217.48 506.55 217.48 506.55 211.21 480.21 211.21 480.21 157.43 473.34 157.43"/>
    </clipPath>
    <linearGradient id="linear-gradient-4" x1="124.37" y1="-277.59" x2="130.91" y2="-277.59" gradientTransform="translate(77756.41 -34821.65) rotate(90) scale(278.34 -278.34)" xlink:href="#linear-gradient"/>
    <clipPath id="clippath-24">
      <polygon class="cls-26" points="516.73 157.43 516.73 217.48 549.85 217.48 549.85 211.39 523.6 211.39 523.6 189.42 547.62 189.42 547.62 183.34 523.6 183.34 523.6 163.52 549.85 163.52 549.85 157.43 516.73 157.43"/>
    </clipPath>
    <linearGradient id="linear-gradient-5" x1="124.37" y1="-277.55" x2="130.91" y2="-277.55" gradientTransform="translate(77788.28 -34863.33) rotate(90) scale(278.34 -278.34)" xlink:href="#linear-gradient"/>
    <clipPath id="clippath-25">
      <path class="cls-26" d="M560.89,187.54c0,18.54,11.75,30.79,30.45,30.79,4.97,0,11.66-.94,17.24-2.4v-30.62h-20.76v5.75h13.89v20.15c-3.94.69-7.54.95-10.03.95-14.59,0-23.76-9.69-23.76-24.62s9.01-24.87,23.68-24.87c5.23,0,11.32,1.28,16.38,2.83v-6.26c-5.06-1.54-10.81-2.66-16.55-2.66-18.7,0-30.54,12.27-30.54,30.96"/>
    </clipPath>
    <linearGradient id="linear-gradient-6" y1="-277.5" x2="130.91" y2="-277.5" gradientTransform="translate(77825.99 -34913.09) rotate(90) scale(278.34 -278.34)" xlink:href="#linear-gradient"/>
    <clipPath id="clippath-26">
      <polygon class="cls-26" points="624.6 157.43 624.6 217.48 657.71 217.48 657.71 211.39 631.46 211.39 631.46 189.42 655.48 189.42 655.48 183.34 631.46 183.34 631.46 163.52 657.71 163.52 657.71 157.43 624.6 157.43"/>
    </clipPath>
    <linearGradient id="linear-gradient-7" x1="124.37" y1="-277.45" x2="130.91" y2="-277.45" gradientTransform="translate(77867.37 -34967.57) rotate(90) scale(278.34 -278.34)" xlink:href="#linear-gradient"/>
    <clipPath id="clippath-27">
      <polygon class="cls-26" points="694.8 157.43 694.8 217.48 701.67 217.48 701.67 189.42 725.69 189.42 725.69 183.34 701.67 183.34 701.67 163.52 727.92 163.52 727.92 157.43 694.8 157.43"/>
    </clipPath>
    <linearGradient id="linear-gradient-8" x1="124.37" y1="-277.38" x2="130.91" y2="-277.38" gradientTransform="translate(77919.05 -35035) rotate(90) scale(278.34 -278.34)" xlink:href="#linear-gradient"/>
    <clipPath id="clippath-28">
      <path class="cls-26" d="M759.72,163.95l13.38,32.08h-26.85l13.46-32.08ZM756.29,157.43l-26.17,60.06h7.21l6.52-15.79h31.66l6.52,15.79h7.55l-26.08-60.06h-7.21Z"/>
    </clipPath>
    <linearGradient id="linear-gradient-9" x1="124.37" y1="-277.34" x2="130.91" y2="-277.34" gradientTransform="translate(77954.58 -35081.91) rotate(90) scale(278.34 -278.34)" xlink:href="#linear-gradient"/>
    <clipPath id="clippath-29">
      <rect class="cls-26" x="799.23" y="157.43" width="6.87" height="60.06"/>
    </clipPath>
    <linearGradient id="linear-gradient-10" x1="124.37" y1="-277.29" x2="130.91" y2="-277.29" gradientTransform="translate(77986.34 -35122.49) rotate(90) scale(278.34 -278.34)" xlink:href="#linear-gradient"/>
    <clipPath id="clippath-30">
      <path class="cls-26" d="M828.82,163.52h7.8c9.01,0,16.04,3.44,16.04,11.93s-5.74,12.01-13.29,12.01h-10.55v-23.94ZM821.95,157.43v60.06h6.87v-23.93h9.95c.6,0,1.2,0,1.8-.09l13.55,24.02h7.47l-13.99-25.13c7.04-2.23,12.1-7.55,12.1-16.82,0-13.12-10.04-18.1-23.51-18.1h-14.25Z"/>
    </clipPath>
    <linearGradient id="linear-gradient-11" x1="124.37" y1="-277.26" x2="130.91" y2="-277.26" gradientTransform="translate(78014.89 -35160.56) rotate(90) scale(278.34 -278.34)" xlink:href="#linear-gradient"/>
    <clipPath id="clippath-31">
      <path class="cls-26" d="M207.9,217.63c-1.22-.31-2.45-.59-3.69-.84-1.09-.23-2.19-.46-3.3-.63-1.03-.16-1.46-.63-1.07-1.6,1.56.3,3.09.58,4.62.9.39.08.83.22,1.11.48,2.07,1.94,4.28,1.54,6.61.57.48-.2,1.16.06,1.75.12-.19.43-.34.89-.6,1.29-.26.4-.63.73-.97,1.11-.84-1.34-1.2-1.4-2.53-.74-.78-.27-1.35-.5-1.93-.65M202.1,209.03c1.39-1.06,2.63-1.95,3.81-2.94.39-.33.56-.91.88-1.33.23-.29.55-.51.82-.76.25.33.69.64.72.99.25,2.91-.09,5.7-2.05,8.03-2.33-.62-3.78-2-4.19-3.99M83.89,255.65c-.6-.32-1.08-.9-1.71-1.11-2.58-.88-3.03-2.75-2.88-5.21.24-3.81.16-7.64.34-11.46.04-.95.68-1.86.8-2.83.24-1.98.33-3.99.45-5.98.13-2.14.21-4.27.32-6.41.08-1.64-.53-2.34-1.91-3.25-1.64-1.09-3.24-2.31-3.03-4.74.07-.84-.12-1.89-.6-2.55-2.17-2.97-1.7-3.99.44-7.53.8-1.32,1.64-2.47.81-4.1-.15-.3.12-.98.41-1.28.75-.78,1.58-1.5,2.46-2.16.9-.68,1.83-.79,2.85-.02.57.43,1.38.83,2.05.79,2.34-.13,4.48,1.13,5.17,3.4.3.99.63,1.54,1.8,1.13,1.44-.51,3.17.69,3.44,2.29.35,2.12,1.16,2.67,3.34,2.37.41-.06.94.03,1.28.26,1.87,1.27,3.73,2.55,5.51,3.94,1.01.79,1.06,2.22.41,3.5-.33.64-.56,1.33-.87,1.98-.16.36-.32.9-.61,1-1.72.59-1.52,2.16-1.93,3.45-.4,1.26-.91,2.49-1.46,3.71-.12.29-.56.64-.84.63-1.52-.06-1.87,1.51-2.94,2.07-.28.14-.34.89-.32,1.36.08,1.76-.6,3.07-2.05,4.05-.36.24-.7.6-.9.99-.96,1.84-1.28,1.98-3.3,1.27-.11-.04-.25-.04-.66-.11.27.72.37,1.36.72,1.81.85,1.09.9,1.61-.28,2.33-.7.43-1.57.57-2.49.89-.27.36-.69.87-1.04,1.42-.28.44-.51.93-.7,1.42-.25.63-.3,1.37-.67,1.9-.82,1.14-1.51,2.18,0,3.11-.5.75-1.27,1.37-1.25,1.96.06,1.66.44,3.3.7,4.95.05.32.13.63.2.95-.36-.06-.76-.03-1.07-.19M123.38,162.06c.56-1.25.95-2.31,1.5-3.26.15-.26.78-.25,1.19-.36.04.34.1.68.1,1.02,0,.27-.06.54-.08.81-.11,1.52-.13,1.86-1.35,1.86-.35,0-.79-.03-1.37-.06M127.18,159.98c.06-.46,0-1.06-.24-1.43-.81-1.25-1.04-2.57-.8-4,2.04-.21,2.64.35,2.62,2.17,0,.42.32.87.55,1.27.36.62.87,1.17,1.14,1.82.78,1.91-.15,3.22-2.17,3.19-.45,0-.89,0-1.78,0,.26-1.14.53-2.08.67-3.03M116.74,149c-.38-.12-.86-.75-.84-1.12.06-.85.41-1.67.72-2.81,1.51,1.45,2.63.92,3.73.11.54.79,1.04,1.52,1.64,2.41-.5.24-1.01.47-1.5.71-.55.27-1.08.69-1.67.8-.28.05-.57.08-.85.08-.42,0-.85-.06-1.23-.18M161.93,140.54c-.39-.3-.77-1.21-.59-1.53,1.01-1.83,1.84-3.85,4.4-4.17,1.39-.17,2.73-.75,4.25-1.2-.54,2.19-2.55,3.24-4.65,2.73-1.16,1.92-1.33,3.03-.79,5.54-.97-.49-1.89-.81-2.62-1.38M189.06,129.25c.32.43.65.87.99,1.34-.72.54-1.33,1.01-2.03,1.54-.93-1.18-.71-1.82,1.04-2.88M140.06,127c.46-.76.97-1.36,1.88-.37.27.29.95.17,1.37.39.39.2,1,.69.95.88-.14.45-.59.82-.97,1.16-.07.06-.2.03-.34,0-.11-.02-.23-.05-.32-.03-.28.06-.71.13-.79.32-.09.22.05.62.22.85.52.67,1.1,1.29,1.82,2.11-.68.21-1.12.33-1.56.47.25-.29.49-.59.73-.88-.87-.47-1.73-.95-2.67-1.46-.62,1.06-1.14,1.95-1.97,3.36-.64-.95-1.11-1.63-1.57-2.31-.23-.33-.39-.81-.7-.95-1.07-.45-.83-1.11-.45-1.87.4-.82.89-1.03,1.86-.74.25.07.5.11.74.11.68,0,1.34-.3,1.78-1.05M84.38,124.01c1.5-.8,3.12-1.47,4.77-1.83.88-.19,1.94.4,3.29.73-.6.64-.95,1.12-1.41,1.47-.39.29-.89.5-1.37.6-2.11.41-3.25,1.87-4.38,3.55-.92,1.36-2.33,2.37-3.44,3.62-.43.49-.64,1.18-.94,1.78-.22.43-.43.88-.8,1.63.75.25,1.5.5,2.26.73.87.27,1.99.27,2.58.83,1.7,1.61,3.24,3.4,4.72,5.22.3.36.12,1.19-.04,1.76-.03.11-.51.11-.93.11-.12,0-.24,0-.34,0-.33.01-.67-.02-1.21-.05.34.52.66.83.74,1.19.17.81,1.11,1.73-.27,2.44-.24.12-.2.78-.25,1.05-2.33-1.15-4.65-2.29-6.97-3.43.02-.11.03-.22.04-.33.41-.11.82-.34,1.22-.32,1.18.07,1.77-.88,1.89-1.6.13-.76-.3-1.84-.85-2.43-1.09-1.16-2.58-1.65-4.22-1.49-.18.02-.36.05-.54.05-1.14-.01-2.93-1.16-3.03-2.25-.05-.55.62-1.25,1.1-1.74.43-.43,1.06-.66,1.6-.98-.04-.12-.08-.24-.13-.36-.43-.02-.87,0-1.28-.08-.63-.12-1.46-.08-1.05-1.22.09-.25-.35-.74-.63-1.04-.42-.44-.91-.8-1.37-1.19.1-.17.19-.34.29-.51.51.24,1.03.47,1.54.73.53.27,1.06.56,1.66.86.05-.32.1-.45.07-.48-1.39-1.13-1.3-2.32-.16-3.56.08-.09.17-.3.13-.37-.9-1.54.67-2.42.93-3.79,1.02.34,1.74,2.86,2.94.42.77.69,1.31.99,1.91.99.54,0,1.12-.25,1.95-.7M102.07,121.32c.08-2.56,2.13-2.67,3.88-3.11,1.06-.27,1.5.49,1.65,1.31.14.79.03,1.62.03,2.63,1.2-.66,2.29-1.24,3.57-1.94.12.73.44,1.39.24,1.74-1.06,1.88.47,3.98-.57,5.85-.13.24.16.68.17,1.04.01.38-.06.76-.11,1.15-.03.21-.21.46-.13.62.81,1.78-.47,3.05-1.01,4.52-.33.91-.36,1.95-.43,2.94-.14,2-.83,2.78-2.83,3.14-.27.04-.58.23-.75.45-.48.65-.81,1.44-1.36,2.01-1.52,1.59-2.02,3.6-2.5,5.64-.13.54-.35,1.08-.54,1.66-2.1-1.69-2.65-3.72-2.49-6.24.14-2.25-.21-4.55-.43-6.81-.16-1.64-.59-3.27-.66-4.91-.05-1.14-.38-1.61-1.5-1.44-1.03.16-1.81.06-1.81-1.29,0-.28-.42-.55-.63-.84-.66-.93.04-2.8,1.15-2.75,1.56.06,1.32-.9,1.28-1.78-.08-1.56,1-2.65,2.47-2.41q1.04-2.08,3.01-.93c.09-.07.28-.15.28-.24M62.54,135.66c.41.17.94.12,1.51.2.21-.48.44-1,.67-1.51.09,0,.18,0,.27,0,.03.35.07.7.09,1.05.01.32-.1.68.01.95.63,1.46,1.19,2.84-.18,4.28-.4.42.65,1.25,1.57,1.05.41-.09,1-.35,1.11-.67.64-1.91,2.59-2.25,3.92-3.4.82.83,2.02,1.47.99,3.27.77-.21,1.21-.32,1.65-.46.96-.32,1.42.04,1.38,1.05-.1,2.54-1.64,3.98-3.81,4.86-2.21.9-3.85,3.14-3.61,5.22.05.44.38.85.62,1.25.1.17.42.31.42.44-.09,1.66,1.03,1.66,2.18,1.66.22,0,.61.04.63.13.39,1.55,1.6,1.44,2.79,1.51.23.02.67.63.6.86-.47,1.75.82,2.19,2.06,2.87.13-.71.28-1.32.35-1.94.15-1.22-.02-2.53,1.14-3.42.18-.14.3-.49.3-.74-.02-1.57,0-3.14-.15-4.7-.07-.71.1-1.05.76-1.14,1.06-.15,2.02-.09,2.91.74.8.77,1.82,1.31,2.67,1.91-.06.8-.12,1.61-.18,2.41.2.12.4.24.61.36.52-.79,1.05-1.58,1.57-2.36.14,0,.27.01.41.02.95,3.14,2.63,5.71,5.68,7.43-.47.4-.83.78-1.26,1.04-1.39.85-2.85,1.57-4.19,2.49-1.28.88-2.14,2.15-1.97,3.79.09.86-.16,1.2-.97,1.22-1.52.03-2.77.31-2.41,2.33.03.19-.47.65-.76.69-1.84.27-2.76,1.29-3.05,3.12-.28,1.86-1.13,3.44-2.73,4.55-.94.66-1.33,1.57-1.21,2.72.13,1.39.24,2.78.38,4.51-1.15-1.08-2.35-1.76-2.45-3.21-.12-1.67-1.64-1.12-2.48-1.6-.15-.09-.66.6-1.07.75-.38.14-.94.21-1.25.02-1.61-.95-3.8-.1-3.96,1.77-.18,2.15-.16,4.34.03,6.48.13,1.5,1.61,1.99,2.88,1.13.79-.54,1.54-1.12,2.17-1.82,1.48,0,1.49.1.95,1.62-.28.78-.3,1.68-.28,2.53,0,.2.67.62.89.54,1.28-.45,1.51.4,1.73,1.27.14.57.23,1.16.27,1.75.13,2.28.25,2.43,2.51,2.59.44.03.89-.04,1.37-.07-.94,1.09-1.57,1.14-2.73.61-1.42-.65-2.46-1.64-3.38-2.87-.46-.61-1.27-.95-1.93-1.4-.14-.1-.41-.08-.5-.21-1.13-1.62-2.96-1.26-4.52-1.76-3.02-.97-5.71-2.58-6.42-6.21-.22-1.1-1.01-2.1-1.58-3.12-.59-1.06-1.19-2.11-1.85-3.12-.22-.35-.63-.56-1.19-.67.99,2.14,1.99,4.29,2.98,6.43-.16.12-.33.23-.5.35-.35-.26-.83-.45-1.01-.8-.75-1.4-1.43-2.83-2.09-4.27-.75-1.66-1.86-3.03-2.96-4.48-.79-1.04-1.47-2.14-1.97-3.28-.61,4.19-.92,8.47-.92,12.83,0,48.83,39.58,88.41,88.41,88.41,29.56,0,55.73-14.51,71.79-36.8-1.01-.38-1.43-1.48-1.26-2.95.23-2.06.17-4.14.23-6.22.06-2.1.3-2.49,2.38-2.86,2.16-.39,3.46-1.79,4.59-3.47.52-.77.77-1.85,2.15-.74.35.28.73.34,1.07.25,1.24-2.82,2.34-5.73,3.3-8.7-.18-.05-.36-.1-.54-.15-.85-.25-1.83-.05-2.7-.25-.47-.11-.83-.66-1.01-.81.07-1.5.05-2.56.21-3.59.06-.4.54-.74.82-1.1.23.43.55.85.66,1.31.06.31-.22.68-.27,1.03-.06.4-.03.81-.04,1.21.41-.03.85,0,1.24-.1.87-.23,1.7-.64,2.58-.78t0,0c2.09-7.54,3.21-15.48,3.21-23.69,0-2.02-.07-4.03-.2-6.01-.19.11-.44.21-.77.29-1.24.3-2.33,1.23-3.49,1.89-.42.24-.82.51-1.33.83-.32-1.06-.78-1.84.65-2.39.61-.23.85-1.32,1.37-1.93.39-.46.93-1.03,1.46-1.1,1.08-.14,1.55-.68,1.77-1.43-.28-2.47-.65-4.91-1.13-7.32-.58.83-1.29,1.58-1.92,2.36-.46.57-1.36.84-2.11,1.09-1.56.53-2.28,2.03-1.74,3.53.36,1.01.5,2.1.78,3.35-.73.13-1.31.23-1.91.34-.9-2.09-1.59-4.21-3.88-5.26-.28.15-.65.42-1.07.57-1.02.34-1.06.85-.36,1.58.18.19.37.45.38.7.21,2.79.42,5.6.54,8.39.08,1.96-1.33,3.22-2.4,4.61-.17.22-.64.27-.97.27-1.7-.01-2.19.38-2.66,2.02-.1.34-.57.57-.87.85-.22-.3-.61-.6-.63-.91-.03-.73-.1-1.32-1.04-1.16-.95.15-1.02.83-.75,1.54.33.88.66,1.81,1.18,2.59,1.55,2.3,1.49,3.14-.62,4.86-.45.37-.97.67-1.53,1.05-.32-1.86-1.43-2.98-2.97-3.8-.75,1.88-.11,4.03.96,5.49.76,1.05.96,2.5,1.21,3.85-1.58-.46-2.78-1.11-2.54-2.92.02-.17.03-.44-.07-.53-1.98-1.81-.72-4.56-1.93-6.57-.42-.7-1-1.31-1.38-2.04-.56-1.07-1.26-2.16-1.43-3.32-.27-1.89-.17-1.95-1.99-1.64-.62.1-1.25.15-1.61.5-1.26,1.49-2.37,3.14-3.83,4.41-.79.69-1.12,1.31-1.19,2.24-.07.95-.11,1.9-.22,2.85-.13,1.22-.95,1.66-2.08,1.74-1.09.08-1.24-.56-1.31-1.45-.18-2.51-.56-4.97-1.94-7.16-.17-.27-.32-.65-.58-.74-1.94-.71-2.37-2.5-3.11-4.11-.15-.35-.69-.67-1.09-.73-1.08-.15-2.18-.14-3.26-.24-.14-.01-.28-.01-.43-.01-.6,0-1.21,0-1.45-.88-.06-.2-.72-.28-1.11-.33-1.57-.18-2.84-.72-3.65-2.25-.24-.44-1.16-.52-1.76-.77-.06.13-.12.25-.18.38.41,1.09.77,2.19,1.22,3.27.85,2.04,2.27,2.22,3.7.35.53.58,1.1,1.1,1.53,1.72.23.34.44,1.06.27,1.24-.82.87-.6,2.01-.98,2.96-.28.71-1.06,1.34-1.78,1.73-1.19.63-2.52,1.03-3.78,1.54-.41.17-.86.32-1.21.59-1.04.8-1.76.6-2.21-.58-.82-2.15-1.71-4.27-2.58-6.41-.07-.16-.15-.4-.29-.45-1.58-.56-1.34-1.95-1.49-3.17-.04-.32-.02-.73-.21-.91-.45-.44-1.01-.76-1.53-1.14-.02.56-.2,1.16-.04,1.66.79,2.61,1.66,5.18,2.5,7.77.02.04.01.09.03.13.84,1.54,1.52,3.21,2.59,4.57,1.03,1.31,2.66,1.4,4.27,1.05.43-.09.91.05,1.36.08-.1.47-.12.97-.31,1.4-.4.9-.93,1.75-1.33,2.65-.85,1.92-2.07,3.52-3.92,4.57-2.14,1.21-2.73,2.42-2.39,4.8.3,2.08.69,4.16.84,6.25.12,1.67-.68,3-2.21,3.79-1.58.82-2.16,1.98-2.1,3.86.04,1.33-.82,2.71-1.3,4.05-.25.68-.63,1.31-.84,2-1.04,3.28-3.22,5.01-6.65,5.25-.49.03-.98.14-1.43.22-.83-2-1.68-3.99-2.48-5.99-.23-.59-.32-1.22-.5-1.84-1.37-4.8-1.83-9.72-1.57-14.68.11-2.11-1.1-3.59-1.91-5.25-.52-1.05-.94-1.86-.2-3,.35-.54.28-1.4.3-2.11.02-.78-.43-1.06-1.21-1.15-.53-.06-1.01-.5-1.54-.69-.53-.19-1.13-.47-1.63-.37-1.14.22-2.22.89-3.35.93-1.49.05-3.07-.12-4.48-.59-1.07-.36-1.97-1.3-2.89-2.05-.29-.23-.42-.66-.62-1-.32-.53-.55-1.15-.97-1.58-1.22-1.25-1.52-2.7-1.37-4.38.15-1.6.07-3.22.21-4.83.03-.46.43-.91.72-1.33.43-.61.9-1.19,1.38-1.77.41-.49.84-.98,1.28-1.45.14-.16.39-.27.47-.45.59-1.37,1.03-2.82,1.78-4.09.31-.53,1.28-.67,2.11-1.06.08-1.24,1.03-1.73,2.41-1.91.91-.12,1.77-.66,2.69-.82,2.12-.38,4.25-.64,6.75-1.01-.33,1.07-.5,1.75-.76,2.38-.3.72-.3,1.34.61,1.39,1.72.1,2.96,1.02,4.16,2.1.35.32.79.53,1.27.85.17-.34.32-.52.36-.72.34-1.84.49-2.01,2.26-1.23,1.94.86,3.92,1.08,6,.92,1.81-.14,3.61-3.03,2.86-4.68-.12-.28-.66-.5-1.01-.51-.95-.02-1.91.1-2.86.13-1.2.04-1.77-.53-2.01-1.74-.15-.8-.7-1.52-1.11-2.35-1.57.99-.21,3.25-2.38,3.55-.35-1.01-.82-2.03-1.06-3.11-.25-1.11-.82-1.63-1.94-1.69-1.05-.05-1.83-.44-1.92-1.69-.02-.27-.51-.51-1.04-1-.07,1.75,1,2.26,1.77,3.03.45.45.88,1.16.89,1.75,0,.67-.49,1.35-1.01,1.97.08-2.25-.84-3.54-2.91-4.19-.57-.18-.99-.87-1.53-1.38-.29.15-.65.51-.91.45-1.95-.45-3.01.67-4.06,2.04-1.01,1.34-2.24,2.52-2.31,4.35,0,.06-.12.12-.09.09-1.57-.3-3.05-.58-4.57-.86.11-1.77.21-3.32.31-5.01.71-.08,1.51-.16,2.31-.27,1.87-.26,2.77-2.39,1.69-3.95-.88-1.26-.7-1.43.77-1.84.84-.24,1.55-1.02,2.23-1.65.53-.48.87-1.19,1.43-1.64.54-.44,1.26-.93,1.9-.92,1.16,0,1.59-.42,1.56-1.5-.01-.77,0-1.53,0-2.62.43.48.68.71.87.97,1.82,2.35,5.19,2.58,7.41.65.88-.77,1.96-1.28,2.32-2.53.05-.17.42-.31.66-.35,1.48-.28,2.09-.99,2.16-2.78-1.47.2-2.91.39-4.54.61-.71-.65-.7-1.96.27-3.39.33-.48.69-.96.99-1.47.42-.71.34-1.29-.68-1.67-1.2,1.6-2.53,3.15-3.59,4.88-.45.74-.31,1.85-.48,2.78-.18.97-.34,1.96-.66,2.89-.1.29-.69.54-1.07.56-.22,0-.46-.5-.67-.79-.53-.71-1-1.49-1.61-2.13-.65-.68-1.33-.6-1.96.18-.25.31-1.01.64-1.14.52-.34-.32-.66-.88-.63-1.32.05-1.08.23-2.17.52-3.21.13-.46.62-.85,1.02-1.19.99-.86,2.16-1.55,2.98-2.54,1.03-1.26,2.04-2.65,2.6-4.16.57-1.55,1.76-1.82,2.98-2.17.9-.26,1.87-.32,2.82-.44,1.03-.13,1.87-.08,2.82.75,1.22,1.07,2.9,1.62,4.4,2.37.63.32,1.52.39,1.3,1.43-.21,1.03-.99,1.19-1.88,1.14-.22-.01-.44.03-.81.06.14.69.2,1.33.43,1.89.12.29.66.67.85.59.39-.15.68-.56.98-.9.2-.23.32-.53.52-.75.87-.93,1.74-1.86,2.64-2.76.2-.2.56-.44.77-.38.21.05.37.46.45.74.33,1.27.74,1.51,1.89.92.57-.29,1.09-.66,1.6-1.04.93-.7,1.9-.93,3.06-.61,1.84.52,2.4.01,2.22-1.88,1.95-.61,2.97,1.01,4.6,2.28-.41-3.1-.27-5.67,2.3-7.74-.03,3.52,2.01,6.6.22,9.96,2.36-.14,1.52-2.34,2.68-3.07-1.89-1.66-2.51-4.64-1.26-5.78,1.77,2.08,2.76,1.9,3.83-.75,1.17.2,1.99-.15,3.06-1.01,1.23-.98,3.29-1.08,5.01-1.22,1.96-.16,1.95,0,2.48-1.94.09-.33.63-.84.85-.78.63.14,1.59.41,1.72.85.34,1.08.92,1.35,1.9,1.2.13-.02.27,0,.41,0,2.73.12,2.98.46,2.3,3.33.74.14,1.49.24,2.21.45,1.21.34,2.58.04,3.61,1.19.68.76,2.35.43,2.93-.25.31-.37.83-.95,1.1-.87.85.23,1.74.53,2.46,1.02-15.72-24.48-43.19-40.7-74.44-40.7-29.63,0-55.85,14.57-71.89,36.94"/>
    </clipPath>
    <linearGradient id="linear-gradient-12" x1="125.37" y1="-299.02" x2="128.73" y2="-299.02" gradientTransform="translate(14910.77 -6081.89) rotate(90) scale(49.42 -49.42)" xlink:href="#linear-gradient"/>
    <clipPath id="clippath-32">
      <path class="cls-26" d="M132.67,1.21C95.5,15.14,58.6,29.76,21.5,43.89,2.93,50.96,3.19,50.69,2.68,70.55,2.36,83.27.26,95.95,0,108.67c-.09,4.46,2.93,8.98,4.54,13.48,1.5-.29,3-.59,4.5-.88V53.92c14.58,7.23,28.75,14.07,42.66,21.41,1.61.85,2.38,4.42,2.51,6.77.34,6.26.11,12.54.11,19.63,57.6-34.15,114.08-34.15,171.34-.15,0-4.34.47-7.59-.08-10.66-2.05-11.47,3.04-17.48,13.55-21.67,12.37-4.93,24.03-11.61,37.64-18.33-4.05-1.65-6.13-2.54-8.25-3.35-40.33-15.52-80.61-31.19-121.09-46.34-2.21-.83-4.84-1.24-7.47-1.24s-5.15.4-7.31,1.21"/>
    </clipPath>
    <linearGradient id="linear-gradient-13" x1="124.37" y1="-293.5" x2="127.73" y2="-293.5" gradientTransform="translate(17587.19 -7425.27) rotate(90) scale(59.45 -59.45)" gradientUnits="userSpaceOnUse">
      <stop offset="0" stop-color="#09a9e2"/>
      <stop offset=".9" stop-color="#09a9e2"/>
      <stop offset="1" stop-color="#09a9e2"/>
    </linearGradient>
    <clipPath id="clippath-33">
      <path class="cls-26" d="M74.34,106.35c3.69-1.77,6.44-3.04,9.15-4.39,45.13-22.41,102.69-7.98,130.14,32.62,32.3,47.79,16.53,109.55-34.89,135.73-8.25,4.2-15.22,9.13-19.21,18.68,39.71-5.26,75.52-42.82,81.86-84.87,7-46.45-16.27-91.02-57.91-110.92-13.98-6.68-30.19-9.9-46.1-9.9-25.08,0-49.4,7.99-63.04,23.04"/>
    </clipPath>
    <linearGradient id="linear-gradient-14" x1="125.37" y1="-295.39" x2="128.73" y2="-295.39" gradientTransform="translate(17057.58 -7086.65) rotate(90) scale(57.2 -57.2)" xlink:href="#linear-gradient"/>
  </defs>
  <g id="Layer_1-2" data-name="Layer_1">
    <g>
      <g class="cls-69">
        <rect class="cls-29" x="284.39" y="91.22" width="28.22" height="37.33"/>
      </g>
      <g>
        <g class="cls-33">
          <rect class="cls-44" x="314.11" y="101.32" width="14.56" height="27.23"/>
        </g>
        <g class="cls-60">
          <rect class="cls-30" x="332.74" y="101.35" width="22.34" height="27.74"/>
        </g>
        <g class="cls-41">
          <rect class="cls-48" x="364.33" y="91.22" width="4.27" height="37.33"/>
        </g>
        <g class="cls-11">
          <rect class="cls-28" x="378.48" y="101.35" width="23.46" height="27.2"/>
        </g>
        <g class="cls-37">
          <rect class="cls-61" x="411.46" y="91.22" width="4.27" height="37.33"/>
        </g>
        <g class="cls-4">
          <rect class="cls-64" x="425.61" y="101.35" width="23.46" height="27.2"/>
        </g>
        <g class="cls-5">
          <rect class="cls-43" x="456.09" y="101.35" width="24.69" height="39.04"/>
        </g>
        <g class="cls-39">
          <rect class="cls-15" x="504.34" y="90.69" width="33.06" height="38.5"/>
        </g>
        <g class="cls-18">
          <rect class="cls-1" x="557.92" y="91.22" width="30.56" height="37.33"/>
        </g>
        <g class="cls-19">
          <rect class="cls-36" x="594.42" y="101.41" width="23.84" height="27.68"/>
        </g>
        <g class="cls-25">
          <rect class="cls-55" x="621.7" y="101.88" width="25.12" height="26.67"/>
        </g>
        <g class="cls-45">
          <rect class="cls-66" x="684.15" y="88.56" width="8.63" height="40.26"/>
        </g>
        <g class="cls-63">
          <rect class="cls-20" x="696.96" y="101.35" width="26.03" height="27.74"/>
        </g>
        <g class="cls-47">
          <rect class="cls-58" x="730.32" y="101.35" width="24.74" height="37.87"/>
        </g>
        <g class="cls-8">
          <rect class="cls-22" x="762.44" y="101.35" width="38.39" height="27.2"/>
        </g>
        <g class="cls-59">
          <rect class="cls-65" x="807.71" y="101.41" width="23.84" height="27.68"/>
        </g>
        <g class="cls-6">
          <rect class="cls-24" x="652.45" y="101.41" width="23.84" height="27.68"/>
        </g>
        <g class="cls-10">
          <rect class="cls-56" x="838.98" y="101.35" width="23.46" height="27.2"/>
        </g>
        <g class="cls-51">
          <rect class="cls-34" x="867.37" y="94.16" width="15.85" height="34.71"/>
        </g>
        <g class="cls-38">
          <rect class="cls-67" x="295.07" y="157.67" width="71.43" height="59.58" transform="translate(62.19 456.55) rotate(-74.59)"/>
        </g>
        <g class="cls-3">
          <rect class="cls-12" x="351.93" y="151.74" width="74.91" height="71.61" transform="translate(105.14 513.11) rotate(-74.59)"/>
        </g>
        <g class="cls-13">
          <rect class="cls-32" x="413.72" y="163.47" width="66.72" height="47.97" transform="translate(147.59 568.67) rotate(-74.59)"/>
        </g>
        <g class="cls-14">
          <rect class="cls-27" x="456.59" y="163.47" width="66.72" height="47.96" transform="translate(179.07 610) rotate(-74.59)"/>
        </g>
        <g class="cls-68">
          <rect class="cls-35" x="499.94" y="163.51" width="66.7" height="47.88" transform="translate(210.9 651.78) rotate(-74.59)"/>
        </g>
        <g class="cls-21">
          <rect class="cls-57" x="548.63" y="156.26" width="72.21" height="62.39" transform="translate(248.68 701.38) rotate(-74.59)"/>
        </g>
        <g class="cls-42">
          <rect class="cls-49" x="607.8" y="163.52" width="66.69" height="47.87" transform="translate(290.1 755.77) rotate(-74.59)"/>
        </g>
        <g class="cls-23">
          <rect class="cls-40" x="678.01" y="163.51" width="66.7" height="47.88" transform="translate(341.66 823.46) rotate(-74.59)"/>
        </g>
        <g class="cls-31">
          <rect class="cls-52" x="723" y="150.82" width="73.69" height="73.27" transform="translate(377.27 870.2) rotate(-74.59)"/>
        </g>
        <g class="cls-62">
          <rect class="cls-16" x="772.8" y="176.17" width="59.72" height="22.57" transform="translate(408.72 911.48) rotate(-74.59)"/>
        </g>
        <g class="cls-50">
          <rect class="cls-53" x="807.56" y="160.37" width="68.43" height="54.17" transform="translate(437.43 949.18) rotate(-74.59)"/>
        </g>
      </g>
    </g>
    <g>
      <g class="cls-7">
        <rect class="cls-17" x="10.32" y="63.01" width="248.24" height="248.23" transform="translate(-95.77 177.48) rotate(-51.91)"/>
      </g>
      <g class="cls-54">
        <rect class="cls-2" x="4.87" y="-85.55" width="266.94" height="293.25" transform="translate(4.93 132.27) rotate(-51.91)"/>
      </g>
      <g class="cls-9">
        <rect class="cls-46" x="25.26" y="51.19" width="272.2" height="266.19" transform="translate(-83.22 197.58) rotate(-51.91)"/>
      </g>
    </g>
  </g>
</svg>